<svg xmlns="http://www.w3.org/2000/svg" width="200" height="200" viewBox="0 0 512 512"><g transform="translate(-20 -329)"><ellipse cx="256" cy="256" rx="256" ry="256" transform="translate(20 329)" fill="#0096ff"/><path d="M4.181,20.668A11.7,11.7,0,1,1,19.225,2.739L131.212,96.706a255.817,255.817,0,0,1,5.107,34.839Z" transform="translate(394.916 433.528)" fill="#267cc8"/><path d="M2.352,11.626A6.583,6.583,0,0,1,10.815,1.54l142.9,119.906c0,.009,0,.025,0,.034q0,8.414-.536,16.7Z" transform="translate(378.288 463.52)" fill="#267cc8"/><path d="M5.226,242.627a14.631,14.631,0,0,1-1.8-20.61L4.279,221v8.248a15.017,15.017,0,0,0,15,15H224.8a15.017,15.017,0,0,0,15-15v-93.38l3.464,2.907a14.627,14.627,0,0,0,20.609-1.8l34.791-41.462a14.646,14.646,0,0,0-1.8-20.61L207.6,0c.259.191.506.386.734.578L374.74,140.207C358.1,257.087,262.532,348.54,143.728,358.844Z" transform="translate(154.692 481.188)" fill="#267cc8"/><path d="M35.89,48.557h216.5a14.629,14.629,0,0,1,14.629,14.629v54.126a14.629,14.629,0,0,1-14.629,14.629H35.89a14.629,14.629,0,0,1-14.629-14.629V63.185A14.629,14.629,0,0,1,35.89,48.557Z" transform="matrix(0.766, 0.643, -0.643, 0.766, 289.42, 356.654)" fill="#fff"/><path d="M12.627-2.148h216.5a14.629,14.629,0,0,1,14.629,14.629V66.606A14.629,14.629,0,0,1,229.13,81.235H12.627A14.629,14.629,0,0,1-2,66.606V12.481A14.629,14.629,0,0,1,12.627-2.148Z" transform="matrix(0.766, -0.643, 0.643, 0.766, 92.155, 565.847)" fill="#fff"/><g transform="translate(166.286 519.171)" fill="none" stroke="#fff" stroke-linecap="round" stroke-linejoin="round" stroke-width="10"><rect width="220.891" height="198.949" rx="10" stroke="none"/><rect x="-5" y="-5" width="230.891" height="208.949" rx="15" fill="none"/></g><path d="M47.433,39.863l0,0L0,.062C.814.02,1.621,0,2.4,0A45.288,45.288,0,0,1,32.6,11.509,45.285,45.285,0,0,1,47.432,39.86Z" transform="translate(356.759 454.706)" fill="#fff"/><path d="M80.531,67.829,0,.256C2.069.085,4.163,0,6.225,0A74.4,74.4,0,0,1,56.687,19.654,74.378,74.378,0,0,1,80.53,67.826Z" transform="translate(359.257 420.224)" fill="#fff"/><g transform="translate(217.486 576.223)" fill="none" stroke="#fff" stroke-width="10"><ellipse cx="58.514" cy="58.514" rx="58.514" ry="58.514" stroke="none"/><ellipse cx="58.514" cy="58.514" rx="53.514" ry="53.514" fill="none"/></g><rect width="30" height="30" transform="translate(261 571.531)" fill="#0096ff"/><rect width="14.629" height="58.514" transform="translate(268.686 567.446)" fill="#fff"/></g></svg>